<svg width="30" height="31" viewBox="0 0 30 31" fill="none" xmlns="http://www.w3.org/2000/svg">
<path fill-rule="evenodd" clip-rule="evenodd" d="M15 27.4126C18.1826 27.4126 21.2348 26.1483 23.4853 23.8979C25.7357 21.6474 27 18.5952 27 15.4126C27 12.23 25.7357 9.17775 23.4853 6.92732C21.2348 4.67688 18.1826 3.4126 15 3.4126C11.8174 3.4126 8.76516 4.67688 6.51472 6.92732C4.26428 9.17775 3 12.23 3 15.4126C3 18.5952 4.26428 21.6474 6.51472 23.8979C8.76516 26.1483 11.8174 27.4126 15 27.4126ZM20.5605 13.4731C20.8337 13.1902 20.9849 12.8113 20.9815 12.418C20.9781 12.0247 20.8203 11.6485 20.5422 11.3704C20.2641 11.0923 19.8879 10.9345 19.4946 10.9311C19.1013 10.9277 18.7224 11.0789 18.4395 11.3521L13.5 16.2916L11.5605 14.3521C11.2776 14.0789 10.8987 13.9277 10.5054 13.9311C10.1121 13.9345 9.73588 14.0923 9.45777 14.3704C9.17966 14.6485 9.02191 15.0247 9.01849 15.418C9.01507 15.8113 9.16626 16.1902 9.4395 16.4731L12.4395 19.4731C12.7208 19.7543 13.1023 19.9123 13.5 19.9123C13.8977 19.9123 14.2792 19.7543 14.5605 19.4731L20.5605 13.4731Z" fill="url(#paint0_linear_67_30)"/>
<defs>
<linearGradient id="paint0_linear_67_30" x1="15" y1="3.4126" x2="15" y2="27.4126" gradientUnits="userSpaceOnUse">
<stop offset="0.35" stop-color="white"/>
<stop offset="0.5" stop-color="#999999"/>
<stop offset="0.65" stop-color="white"/>
</linearGradient>
</defs>
</svg>
