<svg width="201" height="117" viewBox="0 0 201 117" fill="none" xmlns="http://www.w3.org/2000/svg">
<path d="M64.375 47.875C65.4167 49.9583 66.4583 52.0417 67.5 54.125C70 58.875 72.2917 63.625 74.375 68.375C76.5 73.125 78.1458 78.0417 79.3125 83.125C80.0208 86.2083 80.5417 89.2917 80.875 92.375C81.2083 95.4167 80.9375 98.3542 80.0625 101.188C79.2292 103.979 77.4167 106.521 74.625 108.812C71 111.562 67.2292 112.854 63.3125 112.688C59.3958 112.562 55.4792 111.604 51.5625 109.812C47.6875 108.062 44 106.146 40.5 104.062C40.2083 103.896 39.9375 103.75 39.6875 103.625C39.7292 103.833 39.7708 104.062 39.8125 104.312C40.3125 106.688 40.4583 108.833 40.25 110.75C40.0417 112.708 38.8125 114.25 36.5625 115.375C34.0208 116.417 31.8125 116.417 29.9375 115.375C28.1042 114.333 26.375 112.958 24.75 111.25C18 104.583 12.7083 97.1875 8.875 89.0625C5.08333 80.9375 2.41667 72.25 0.875 63C0.291667 60.1667 0.208333 57.4583 0.625 54.875C1.08333 52.25 2.97917 50.4375 6.3125 49.4375C9.39583 48.7292 11.9167 49.2292 13.875 50.9375C15.875 52.6458 17.5417 54.8542 18.875 57.5625C27 73.3958 38.7708 85.6875 54.1875 94.4375C54.6042 94.6875 55.0208 94.9375 55.4375 95.1875C56.9375 96.1458 58.4792 96.8958 60.0625 97.4375C61.6875 97.9792 63.2083 97.6875 64.625 96.5625C65.875 95.4375 66.4167 94.0625 66.25 92.4375C66.0833 90.8125 65.7292 89.1667 65.1875 87.5C64.9792 86.9167 64.8125 86.3542 64.6875 85.8125C63.2292 80.5625 61.2917 75.4375 58.875 70.4375C56.5 65.3958 53.8125 60.1667 50.8125 54.75C50.4375 57.875 49.7083 60.4375 48.625 62.4375C47.5417 64.4375 45.5417 65.4375 42.625 65.4375C40.375 65.2708 38.7292 64.5208 37.6875 63.1875C36.6458 61.8542 35.8125 60.2917 35.1875 58.5C34.8542 57.75 34.5208 57 34.1875 56.25C32.4375 52.6667 30.1042 48.0625 27.1875 42.4375C24.0208 36.3958 20.9375 30.375 17.9375 24.375C14.9792 18.375 12.9167 13.6875 11.75 10.3125C10.8333 7.27083 11.125 4.83333 12.625 3C14.125 1.16667 16.0417 0.229167 18.375 0.1875C20.75 0.104167 22.7708 1.20833 24.4375 3.5C30.1042 11.9583 36.6667 18.4583 44.125 23C51.5833 27.5 59.6458 30.6667 68.3125 32.5C77.0208 34.2917 86.0417 35.3542 95.375 35.6875C97.4583 35.7708 99.2708 36.2292 100.812 37.0625C102.396 37.8542 103.521 39.3125 104.188 41.4375C105.062 45.2708 103.729 48.2708 100.188 50.4375C97.4792 52.4375 95.8542 54.8333 95.3125 57.625C94.7708 60.4167 94.6042 63.2708 94.8125 66.1875C94.8542 66.5208 94.875 66.8542 94.875 67.1875C95.0417 69.5208 95.4583 71.9375 96.125 74.4375C97 77.4792 97.375 80.25 97.25 82.75C97.125 85.25 95.5417 87.0417 92.5 88.125C89.7917 88.9167 87.6458 88.6458 86.0625 87.3125C84.5208 85.9792 83.3542 84.0833 82.5625 81.625C80.6458 75.8333 79.7083 70.8958 79.75 66.8125C79.7917 62.7292 80.0833 59.4375 80.625 56.9375C81.125 54.4375 81.1667 52.6042 80.75 51.4375C80.375 50.2292 78.875 49.5625 76.25 49.4375C74.8333 49.3125 73.3958 49.0417 71.9375 48.625C69.7292 47.8333 67.2083 47.5833 64.375 47.875ZM152.185 12.9375C153.102 17.8542 155.227 22.6667 158.56 27.375C161.893 32.0833 165.206 36.1667 168.497 39.625C171.539 43.3333 173.831 45.25 175.372 45.375C176.914 45.4583 179.456 43.875 182.997 40.625C185.289 38.8333 187.477 38.0833 189.56 38.375C191.643 38.6667 193.247 39.6458 194.372 41.3125C195.539 42.9792 195.893 44.9583 195.435 47.25C194.852 49.375 193.227 51.875 190.56 54.75C187.893 57.5833 184.872 60.1458 181.497 62.4375C178.164 64.6875 175.206 66.0208 172.622 66.4375L197.997 97.5C199.539 99.375 200.372 101.312 200.497 103.312C200.664 105.271 199.747 107.104 197.747 108.812C195.997 110.188 194.31 110.667 192.685 110.25C191.102 109.833 189.435 109.083 187.685 108C187.435 107.833 187.185 107.688 186.935 107.562C182.727 105.104 178.831 102.292 175.247 99.125C171.664 95.9583 168.206 92.6667 164.872 89.25C162.039 86.4167 159.143 83.6458 156.185 80.9375C153.227 78.2292 150.081 75.7292 146.747 73.4375C146.372 73.1458 145.997 72.8333 145.622 72.5C145.206 72.0833 144.747 71.7292 144.247 71.4375C143.789 71.1458 143.227 71 142.56 71C142.56 72.0833 142.56 73.2083 142.56 74.375C142.727 77.4167 142.643 80.375 142.31 83.25C142.018 86.125 141.018 88.3958 139.31 90.0625C137.643 91.7292 134.789 92.2708 130.747 91.6875C126.414 90.8958 122.143 89.8333 117.935 88.5C116.727 88.125 115.497 87.7708 114.247 87.4375C111.997 86.8542 110.289 85.8542 109.122 84.4375C107.956 82.9792 107.622 81.0417 108.122 78.625C108.706 76.25 109.852 74.6875 111.56 73.9375C113.268 73.1875 115.268 72.8958 117.56 73.0625C118.602 73.1875 119.685 73.4792 120.81 73.9375C121.852 74.3958 122.81 74.6875 123.685 74.8125C124.602 74.8958 125.331 74.5417 125.872 73.75C126.456 72.75 126.497 71.6875 125.997 70.5625C125.497 69.4375 124.831 68.3125 123.997 67.1875C123.456 66.4375 122.977 65.6875 122.56 64.9375C118.185 57.1042 112.997 49.9792 106.997 43.5625C100.997 37.1042 94.7267 30.9167 88.185 25C87.935 24.75 87.6642 24.4792 87.3725 24.1875C85.4975 22.6042 84.06 20.9167 83.06 19.125C82.06 17.2917 82.2892 15.1458 83.7475 12.6875C84.9142 10.9792 86.2267 10.0625 87.685 9.9375C89.185 9.77083 90.7892 9.89583 92.4975 10.3125C93.3308 10.4792 94.185 10.625 95.06 10.75C98.5183 11.25 101.414 12.375 103.747 14.125C106.122 15.875 108.352 17.875 110.435 20.125C111.143 20.875 111.893 21.625 112.685 22.375C122.685 32.3333 133.435 41.75 144.935 50.625C144.477 49.5417 144.018 48.4792 143.56 47.4375C141.768 43.2292 140.206 39.25 138.872 35.5C137.539 31.7083 136.352 27.25 135.31 22.125C134.352 17 134.518 12.9792 135.81 10.0625C137.102 7.10417 139.185 5.75 142.06 6C144.935 6.20833 148.31 8.52083 152.185 12.9375Z" fill="white"/>
</svg>
