<svg width="30" height="31" viewBox="0 0 30 31" fill="none" xmlns="http://www.w3.org/2000/svg">
<path fill-rule="evenodd" clip-rule="evenodd" d="M6 4.9126C5.20435 4.9126 4.44129 5.22867 3.87868 5.79128C3.31607 6.35389 3 7.11695 3 7.9126V22.9126C3 23.7082 3.31607 24.4713 3.87868 25.0339C4.44129 25.5965 5.20435 25.9126 6 25.9126H24C24.7956 25.9126 25.5587 25.5965 26.1213 25.0339C26.6839 24.4713 27 23.7082 27 22.9126V7.9126C27 7.11695 26.6839 6.35389 26.1213 5.79128C25.5587 5.22867 24.7956 4.9126 24 4.9126H6ZM24 22.9126H6L12 10.9126L16.5 19.9126L19.5 13.9126L24 22.9126Z" fill="url(#paint0_linear_67_36)"/>
<defs>
<linearGradient id="paint0_linear_67_36" x1="15" y1="4.9126" x2="15" y2="25.9126" gradientUnits="userSpaceOnUse">
<stop offset="0.35" stop-color="white"/>
<stop offset="0.5" stop-color="#999999"/>
<stop offset="0.65" stop-color="white"/>
</linearGradient>
</defs>
</svg>
