<svg width="30" height="31" viewBox="0 0 30 31" fill="none" xmlns="http://www.w3.org/2000/svg">
<path d="M18.125 12.9126C17.0875 12.9126 16.25 12.0751 16.25 11.0376V4.7876C16.25 3.7501 17.0875 2.9126 18.125 2.9126C19.1625 2.9126 20 3.7501 20 4.7876V11.0376C20 12.0751 19.1625 12.9126 18.125 12.9126Z" stroke="url(#paint0_linear_67_38)" stroke-width="2" stroke-linecap="round" stroke-linejoin="round"/>
<path d="M25.625 12.9126H23.75V11.0376C23.75 10.0001 24.5875 9.1626 25.625 9.1626C26.6625 9.1626 27.5 10.0001 27.5 11.0376C27.5 12.0751 26.6625 12.9126 25.625 12.9126Z" stroke="url(#paint1_linear_67_38)" stroke-width="2" stroke-linecap="round" stroke-linejoin="round"/>
<path d="M11.875 17.9126C12.9125 17.9126 13.75 18.7501 13.75 19.7876V26.0376C13.75 27.0751 12.9125 27.9126 11.875 27.9126C10.8375 27.9126 10 27.0751 10 26.0376V19.7876C10 18.7501 10.8375 17.9126 11.875 17.9126Z" stroke="url(#paint2_linear_67_38)" stroke-width="2" stroke-linecap="round" stroke-linejoin="round"/>
<path d="M4.375 17.9126H6.25V19.7876C6.25 20.8251 5.4125 21.6626 4.375 21.6626C3.3375 21.6626 2.5 20.8251 2.5 19.7876C2.5 18.7501 3.3375 17.9126 4.375 17.9126Z" stroke="url(#paint3_linear_67_38)" stroke-width="2" stroke-linecap="round" stroke-linejoin="round"/>
<path d="M17.5 18.5376C17.5 17.5001 18.3375 16.6626 19.375 16.6626H25.625C26.6625 16.6626 27.5 17.5001 27.5 18.5376C27.5 19.5751 26.6625 20.4126 25.625 20.4126H19.375C18.3375 20.4126 17.5 19.5751 17.5 18.5376Z" stroke="url(#paint4_linear_67_38)" stroke-width="2" stroke-linecap="round" stroke-linejoin="round"/>
<path d="M19.375 24.1626H17.5V26.0376C17.5 27.0751 18.3375 27.9126 19.375 27.9126C20.4125 27.9126 21.25 27.0751 21.25 26.0376C21.25 25.0001 20.4125 24.1626 19.375 24.1626Z" stroke="url(#paint5_linear_67_38)" stroke-width="2" stroke-linecap="round" stroke-linejoin="round"/>
<path d="M12.5 12.2876C12.5 11.2501 11.6625 10.4126 10.625 10.4126H4.375C3.3375 10.4126 2.5 11.2501 2.5 12.2876C2.5 13.3251 3.3375 14.1626 4.375 14.1626H10.625C11.6625 14.1626 12.5 13.3251 12.5 12.2876Z" stroke="url(#paint6_linear_67_38)" stroke-width="2" stroke-linecap="round" stroke-linejoin="round"/>
<path d="M10.625 6.6626H12.5V4.7876C12.5 3.7501 11.6625 2.9126 10.625 2.9126C9.5875 2.9126 8.75 3.7501 8.75 4.7876C8.75 5.8251 9.5875 6.6626 10.625 6.6626Z" stroke="url(#paint7_linear_67_38)" stroke-width="2" stroke-linecap="round" stroke-linejoin="round"/>
<defs>
<linearGradient id="paint0_linear_67_38" x1="18.125" y1="2.9126" x2="18.125" y2="12.9126" gradientUnits="userSpaceOnUse">
<stop offset="0.35" stop-color="white"/>
<stop offset="0.5" stop-color="#999999"/>
<stop offset="0.65" stop-color="white"/>
</linearGradient>
<linearGradient id="paint1_linear_67_38" x1="25.625" y1="9.1626" x2="25.625" y2="12.9126" gradientUnits="userSpaceOnUse">
<stop offset="0.35" stop-color="white"/>
<stop offset="0.5" stop-color="#999999"/>
<stop offset="0.65" stop-color="white"/>
</linearGradient>
<linearGradient id="paint2_linear_67_38" x1="11.875" y1="17.9126" x2="11.875" y2="27.9126" gradientUnits="userSpaceOnUse">
<stop offset="0.35" stop-color="white"/>
<stop offset="0.5" stop-color="#999999"/>
<stop offset="0.65" stop-color="white"/>
</linearGradient>
<linearGradient id="paint3_linear_67_38" x1="4.375" y1="17.9126" x2="4.375" y2="21.6626" gradientUnits="userSpaceOnUse">
<stop offset="0.35" stop-color="white"/>
<stop offset="0.5" stop-color="#999999"/>
<stop offset="0.65" stop-color="white"/>
</linearGradient>
<linearGradient id="paint4_linear_67_38" x1="22.5" y1="16.6626" x2="22.5" y2="20.4126" gradientUnits="userSpaceOnUse">
<stop offset="0.35" stop-color="white"/>
<stop offset="0.5" stop-color="#999999"/>
<stop offset="0.65" stop-color="white"/>
</linearGradient>
<linearGradient id="paint5_linear_67_38" x1="19.375" y1="24.1626" x2="19.375" y2="27.9126" gradientUnits="userSpaceOnUse">
<stop offset="0.35" stop-color="white"/>
<stop offset="0.5" stop-color="#999999"/>
<stop offset="0.65" stop-color="white"/>
</linearGradient>
<linearGradient id="paint6_linear_67_38" x1="7.5" y1="10.4126" x2="7.5" y2="14.1626" gradientUnits="userSpaceOnUse">
<stop offset="0.35" stop-color="white"/>
<stop offset="0.5" stop-color="#999999"/>
<stop offset="0.65" stop-color="white"/>
</linearGradient>
<linearGradient id="paint7_linear_67_38" x1="10.625" y1="2.9126" x2="10.625" y2="6.6626" gradientUnits="userSpaceOnUse">
<stop offset="0.35" stop-color="white"/>
<stop offset="0.5" stop-color="#999999"/>
<stop offset="0.65" stop-color="white"/>
</linearGradient>
</defs>
</svg>
