<svg width="30" height="27" viewBox="0 0 30 27" fill="none" xmlns="http://www.w3.org/2000/svg">
<path fill-rule="evenodd" clip-rule="evenodd" d="M7.5 3.0127C7.89782 3.0127 8.27936 3.14966 8.56066 3.39346C8.84196 3.63725 9 3.96791 9 4.3127V5.6127H10.5C10.8978 5.6127 11.2794 5.74966 11.5607 5.99346C11.842 6.23725 12 6.56791 12 6.9127C12 7.25748 11.842 7.58814 11.5607 7.83193C11.2794 8.07573 10.8978 8.2127 10.5 8.2127H9V9.5127C9 9.85748 8.84196 10.1881 8.56066 10.4319C8.27936 10.6757 7.89782 10.8127 7.5 10.8127C7.10217 10.8127 6.72064 10.6757 6.43934 10.4319C6.15804 10.1881 6 9.85748 6 9.5127V8.2127H4.5C4.10218 8.2127 3.72064 8.07573 3.43934 7.83193C3.15804 7.58814 3 7.25748 3 6.9127C3 6.56791 3.15804 6.23725 3.43934 5.99346C3.72064 5.74966 4.10218 5.6127 4.5 5.6127H6V4.3127C6 3.96791 6.15804 3.63725 6.43934 3.39346C6.72064 3.14966 7.10217 3.0127 7.5 3.0127ZM7.5 16.0127C7.89782 16.0127 8.27936 16.1497 8.56066 16.3935C8.84196 16.6373 9 16.9679 9 17.3127V18.6127H10.5C10.8978 18.6127 11.2794 18.7497 11.5607 18.9935C11.842 19.2373 12 19.5679 12 19.9127C12 20.2575 11.842 20.5881 11.5607 20.8319C11.2794 21.0757 10.8978 21.2127 10.5 21.2127H9V22.5127C9 22.8575 8.84196 23.1881 8.56066 23.4319C8.27936 23.6757 7.89782 23.8127 7.5 23.8127C7.10217 23.8127 6.72064 23.6757 6.43934 23.4319C6.15804 23.1881 6 22.8575 6 22.5127V21.2127H4.5C4.10218 21.2127 3.72064 21.0757 3.43934 20.8319C3.15804 20.5881 3 20.2575 3 19.9127C3 19.5679 3.15804 19.2373 3.43934 18.9935C3.72064 18.7497 4.10218 18.6127 4.5 18.6127H6V17.3127C6 16.9679 6.15804 16.6373 6.43934 16.3935C6.72064 16.1497 7.10217 16.0127 7.5 16.0127ZM18 3.0127C18.331 3.0126 18.6528 3.10742 18.9152 3.28236C19.1775 3.45731 19.3658 3.70256 19.4505 3.9799L21.219 9.77269L26.25 12.2869C26.478 12.401 26.6673 12.5651 26.799 12.7627C26.9306 12.9603 26.9999 13.1845 26.9999 13.4127C26.9999 13.6409 26.9306 13.865 26.799 14.0627C26.6673 14.2603 26.478 14.4244 26.25 14.5385L21.219 17.054L19.449 22.8455C19.3641 23.1226 19.1759 23.3675 18.9137 23.5423C18.6515 23.7171 18.33 23.8118 17.9992 23.8118C17.6685 23.8118 17.347 23.7171 17.0848 23.5423C16.8226 23.3675 16.6344 23.1226 16.5495 22.8455L14.781 17.0527L9.75 14.5385C9.52199 14.4244 9.33265 14.2603 9.20101 14.0627C9.06937 13.865 9.00007 13.6409 9.00007 13.4127C9.00007 13.1845 9.06937 12.9603 9.20101 12.7627C9.33265 12.5651 9.52199 12.401 9.75 12.2869L14.781 9.77139L16.551 3.9799C16.6357 3.70277 16.8237 3.45768 17.0857 3.28276C17.3478 3.10784 17.6692 3.01289 18 3.0127Z" fill="url(#paint0_linear_67_32)"/>
<defs>
<linearGradient id="paint0_linear_67_32" x1="15" y1="3.0127" x2="15" y2="23.8127" gradientUnits="userSpaceOnUse">
<stop offset="0.35" stop-color="white"/>
<stop offset="0.5" stop-color="#999999"/>
<stop offset="0.65" stop-color="white"/>
</linearGradient>
</defs>
</svg>
